<?xml version="1.0" encoding="UTF-8" standalone="no"?>
<!-- Generator: Adobe Illustrator 16.0.0, SVG Export Plug-In . SVG Version: 6.00 Build 0)  -->

<svg
   xmlns:dc="http://purl.org/dc/elements/1.1/"
   xmlns:cc="http://creativecommons.org/ns#"
   xmlns:rdf="http://www.w3.org/1999/02/22-rdf-syntax-ns#"
   xmlns:svg="http://www.w3.org/2000/svg"
   xmlns="http://www.w3.org/2000/svg"
   xmlns:sodipodi="http://sodipodi.sourceforge.net/DTD/sodipodi-0.dtd"
   xmlns:inkscape="http://www.inkscape.org/namespaces/inkscape"
   version="1.1"
   id="Layer_1"
   x="0px"
   y="0px"
   width="6817.3804"
   height="2105.3281"
   viewBox="0 0 6817.3806 2105.3281"
   enable-background="new 0 0 5573.111 1990.154"
   xml:space="preserve"
   inkscape:version="0.91 r13725"
   sodipodi:docname="meetup.svg"
   inkscape:export-filename="/home/victor/git/MeetupPhotoDownloader/img/header.sma.png"
   inkscape:export-xdpi="2.6400001"
   inkscape:export-ydpi="2.6400001"><metadata
     id="metadata9"><rdf:RDF><cc:Work
         rdf:about=""><dc:format>image/svg+xml</dc:format><dc:type
           rdf:resource="http://purl.org/dc/dcmitype/StillImage" /><dc:title></dc:title></cc:Work></rdf:RDF></metadata><defs
     id="defs7" /><sodipodi:namedview
     pagecolor="#ffffff"
     bordercolor="#666666"
     borderopacity="1"
     objecttolerance="10"
     gridtolerance="10"
     guidetolerance="10"
     inkscape:pageopacity="0"
     inkscape:pageshadow="2"
     inkscape:window-width="1920"
     inkscape:window-height="1029"
     id="namedview5"
     showgrid="false"
     fit-margin-top="0"
     fit-margin-left="0"
     fit-margin-right="0"
     fit-margin-bottom="0"
     inkscape:zoom="0.047729178"
     inkscape:cx="-363.78923"
     inkscape:cy="1063.2416"
     inkscape:window-x="0"
     inkscape:window-y="0"
     inkscape:window-maximized="1"
     inkscape:current-layer="Layer_1" /><path
     d="m 3250.2408,1063.9676 c -6.331,12.363 -10.3122,20.8009 -14.7661,28.9978 -41.6134,76.4806 -89.9662,147.4662 -160.7346,200.7541 -94.8626,71.3875 -202.1835,108.4487 -319.7057,96.3906 -60.3024,-6.1991 -118.7585,-33.0336 -177.1447,-53.1321 -13.4541,-4.6044 -20.4567,-3.9774 -31.0684,3.9965 -44.4288,33.3637 -87.1769,69.974 -135.1005,97.4069 -85.0614,48.6766 -176.7564,80.8675 -276.9075,65.9952 -62.7744,-9.3231 -119.3556,-37.7856 -171.6228,-73.7865 -37.0654,-25.5232 -39.2331,-25.255 -70.3609,6.7643 -55.9677,57.5979 -123.4668,98.2439 -194.9026,133.5709 -88.6097,43.8526 -181.5608,75.0397 -277.8989,95.5659 -117.5432,25.0403 -230.0102,17.162 -321.3537,-71.561 -73.2154,-71.0878 -100.59842,-159.978 -71.6989,-258.7906 31.6573,-108.1956 70.3772,-214.3634 105.9182,-321.3989 18.5364,-55.7686 37.2375,-111.50429 55.0032,-167.50682 3.2446,-10.28561 3.7218,-21.91641 3.0086,-32.79046 -1.293,-19.995 0.3221,-42.2326 -24.0144,-51.6328 -24.8599,-9.5632 -52.3402,-4.2698 -67.1313,19.4492 -18.5487,29.6798 -34.3177,61.68148 -46.9423,94.34931 -41.8295,108.13713 -81.82402,217.02027 -122.27092,325.68117 -30.3458,81.481 -59.9061,163.2214 -90.6291,244.5423 -29.0992,77.1278 -96.0046,112.7468 -175.0475,92.8449 -26.6277,-6.7416 -44.7632,-23.8033 -52.2717,-51.9992 -10.6353,-40.0048 -1.3628,-77.9291 9.0035,-115.9615 22.6237,-83.1886 45.6726,-166.2727 68.2804,-249.4857 12.1007,-44.6135 24.2083,-89.264 35.2334,-134.15583 7.7301,-31.39077 7.4935,-63.74034 -8.7583,-91.91178 -12.5676,-21.71641 -34.1259,-36.01726 -61.5103,-30.47799 -29.9052,6.05119 -51.9055,24.48359 -60.1602,53.79876 -29.0177,103.38594 -56.328,207.23934 -84.6712,310.80854 -33.8903,123.9618 -66.9616,248.1581 -102.9084,371.5365 -13.314,45.5972 -36.3046,88.3297 -80.3576,112.1286 -22.2975,12.0771 -48.0852,20.8854 -73.1945,24.0465 -78.3496,9.7895 -149.0415,-8.8565 -202.759397,-70.2834 -42.7152003,-48.8513 -58.2982003,-106.7879 -47.4746003,-171.1275 10.0030003,-59.56 20.0093003,-119.1174 30.8436003,-178.5398 10.2654,-56.309 21.5939,-112.442 32.4997,-168.6565 10.1701,-52.341 19.268,-104.9497 30.823,-156.98141 22.737097,-102.42902 38.608397,-207.08687 81.994097,-303.55967 29.6827,-66.0098 85.2299,-106.108 150.9022,-134.4683 68.665,-29.6193 132.2685,-9.087 196.3316,14.3351 24.2904,8.852 48.3653,18.531 73.0987,25.8443 34.5013,10.1569 63.5714,-1.9581 87.7698,-26.6119 19.8052,-20.1675 39.8107,-40.3433 57.702,-62.1968 44.6991,-54.5787 152.061,-75.7563 211.3865,-24.6736 13.6639,11.7633 29.2948,21.2281 44.09322,31.6179 30.4582,21.392 42.201,22.6104 72.2562,0.9269 71.4723,-51.5894 151.1611,-54.4498 231.9234,-35.5136 46.8554,11.002 78.106,46.2748 100.3944,89.6955 32.7914,63.9308 29.3679,129.5802 10.9858,195.1654 -33.8127,120.65572 -71.9814,240.06818 -104.6139,361.02988 -19.3361,71.7561 -34.2555,144.9852 -45.7113,218.396 -4.6638,29.9164 -0.8712,64.3482 9.7614,92.6953 16.0893,42.9085 58.1474,52.8595 99.6298,53.4736 63.1716,0.9402 123.0029,-17.4624 180.8369,-40.6308 49.3995,-19.7311 97.6456,-42.663 145.4125,-66.2095 23.0472,-11.364 43.9408,-27.1914 65.5653,-41.393 18.5038,-12.1063 18.3971,-26.7942 6.0237,-43.8966 -25.2723,-34.9 -51.5844,-69.2098 -74.4854,-105.6726 -48.4221,-77.0693 -90.1679,-157.5174 -91.9091,-251.37794 -1.5384,-82.15072 19.9384,-156.04764 90.1822,-207.22024 103.7082,-75.4966 195.533,-68.1025 287.4742,17.1246 79.5154,73.72798 113.7003,169.34887 95.2255,277.94998 -10.3397,60.7256 -28.1826,120.2988 -44.9084,179.7754 -4.627,16.4672 0.2068,26.1445 11.2099,34.3098 51.4897,38.3467 108.4313,66.2428 170.1217,83.5917 23.265,6.5807 47.5438,10.7058 71.6572,12.8098 51.8609,4.5014 97.5724,-12.8256 136.6299,-46.2083 18.6003,-15.8824 17.6177,-28.6733 1.5316,-46.143 -112.0057,-121.7168 -166.9589,-264.97813 -155.8569,-430.38598 4.1651,-61.9277 25.8426,-122.403 89.0516,-147.1597 39.0708,-15.3146 84.6439,-19.9408 127.1211,-19.2847 69.0315,1.0555 133.708,21.3382 182.0677,75.2684 58.02,64.7119 79.4235,140.23404 67.2196,226.70655 -8.7605,62.10783 -34.6962,117.00633 -63.9986,170.78843 -11.6016,21.3202 -10.0986,39.6094 10.2053,50.7338 31.2681,17.1378 63.2266,36.1878 97.3074,44.3269 74.0521,17.667 147.6725,7.184 216.8203,-23.8787 75.6556,-34.0404 124.9849,-92.2544 147.8066,-173.012 27.245,-96.57112 16.8983,-193.38187 4.1512,-290.27878 -9.9847,-75.7086 -21.1084,-151.2829 -31.8333,-226.934 -3.8255,-27.0133 -8.366,-28.0991 -33.6165,-19.9576 -66.5294,21.3512 -133.579,41.1626 -200.4936,61.2809 -21.1074,6.3164 -42.5451,11.3959 -63.6416,17.684 -45.9865,13.684 -86.858,-1.2746 -95.6404,-55.8722 -8.8827,-55.0191 -23.039,-109.1816 -34.8904,-163.7434 -0.6788,-3.0696 -1.2821,-6.1658 -1.7964,-9.284 -10.4286,-64.6007 1.3444,-101.6863 79.6428,-107.564 80.8629,-6.0332 161.6916,-12.3736 242.5965,-17.1296 39.7958,-2.361 52.5975,-13.8809 50.817,-53.4336 -1.3962,-30.7047 -3.9528,-61.304004 -5.4529,-91.984104 -2.2457,-46.017 6.9613,-58.0360002 53.5875,-61.4043002 27.8745,-2.0068 56.3023,-0.284 84.1273,2.79 39.1812,4.3265 62.219,29.0022002 69.1158,66.7239002 5.6254,30.912604 8.2308,62.408004 11.2268,93.715904 2.0619,22.1591 10.2546,33.2615 35.3249,32.9956 72.3737,-0.7063 144.7642,1.2883 217.1191,1.7927 34.1656,0.2479 54.6111,11.7832 61.9701,36.3432 12.772,42.6581 6.6913,73.5276 -24.8441,89.0935 -44.1114,21.7618 -90.2212,39.738 -136.4395,56.7613 -32.3419,11.9289 -66.4032,19.2925 -99.5137,29.2767 -22.2204,6.6842 -33.217,19.9787 -30.1638,45.4734 14.9192,125.908 26.1472,252.345 43.8625,377.81903 9.2789,65.84799 26.5822,130.89149 61.6149,189.45535 28.3146,47.4398 69.335,62.7943 122.3154,47.7115 77.7405,-22.1372 147.257,-58.072 204.918,-115.26533 31.995,-31.73275 51.2838,-68.34655 47.7849,-115.54781 -6.442,-86.37064 -11.7947,-172.83564 -16.3354,-259.29084 -1.3052,-24.9432 -1.3659,-50.9511 4.3136,-74.9889 3.1744,-13.3377 18.1032,-32.1738 29.781,-33.826 64.4954,-9.1822 129.5783,-17.1039 194.6107,-18.71 40.9103,-1.0224 72.9773,33.7768 75.6235,76.9106 3.8022,60.379 2.7179,121.0883 3.6958,181.658 1.198,74.7316 2.9533,149.4534 3.3391,224.17515 0.3862,75.63533 64.3116,106.02473 123.5487,100.14243 49.6932,-4.9454 76.922,-26.7368 92.1436,-81.60797 15.7642,-56.79631 22.1602,-117.17309 25.0869,-176.34241 4.1054,-83.9984 1.0699,-168.3466 1.6197,-252.5306 0.2109,-34.3798 18.4812,-62.8321 44.1923,-71.4346 29.7267,-9.9384 71.0649,-2.0463 84.1426,24.6785 10.9631,22.3323 12.2321,50.9703 12.1693,76.8099 -0.1945,95.8275 -5.2022,191.7136 -3.4785,287.51706 1.0437,58.8517 38.3256,96.66683 96.834,107.561 29.1532,5.40705 59.1549,8.90715 88.7345,9.02319 51.9401,0.13766 84.0769,-41.35511 88.281,-100.84314 3.5946,-50.02491 -0.836,-100.62281 -1.9959,-150.96301 -1.4562,-59.7706 -7.404,-119.8104 -3.8027,-179.2814 5.2335,-88.0346 52.2766,-172.6148 152.842,-209.2959 60.3616,-22.0339 122.7165,-30.8212 185.4669,-30.5806 95.6712,0.3176 201.6451,53.4933 243.9624,158.6215 32.1456,79.9262 31.9292,160.6267 13.806,242.9928 -20.988,95.4478 -70.1206,173.48947 -143.8126,236.97277 -6.8048,5.85032 -10.0422,15.87553 -14.8695,23.97226 10.5095,3.31214 21.5673,10.59698 31.5175,9.30675 95.1964,-12.10746 182.6939,-43.96049 259.4603,-103.10619 17.3234,-13.32281 36.6104,-24.10181 55.1924,-35.62418 17.076,-10.55621 28.8298,-1.6245 25.5505,14.48595 -5.4578,26.99645 -12.4535,55.61863 -26.7688,78.53485 -60.6079,97.08687 -152.0909,150.60297 -262.5875,170.52577 -46.8703,8.4447 -95.5048,7.4891 -143.3796,10.1737 -36.1379,2.0029 -72.3337,2.8843 -108.5174,4.4596 -18.36,0.8417 -28.0299,9.6704 -30.4869,29.0186 -15.413,121.1881 -17.1436,242.8627 -18.5349,364.8265 -0.8993,76.7922 -6.6004,153.863 -16.4465,230.011 -5.3243,41.3111 -33.633,72.5437 -76.3303,84.4064 -25.5199,7.0889 -46.0073,-2.0107 -57.4329,-25.2583 -9.63,-19.6034 -18.8894,-40.2765 -23.0295,-61.483 -20.3693,-104.6741 -28.6321,-210.4414 -26.3422,-317.1316 1.1387,-54.2756 -0.1101,-108.5935 0.013,-162.8725 0.1519,-37.7641 1.6178,-75.5482 0.9513,-113.2984 -0.6185,-30.4806 -8.2812,-36.8365 -37.8145,-39.3586 -61.0868,-5.2481 -122.1817,-10.2901 -183.1512,-16.8212 -41.4244,-4.4744 -71.3338,13.361 -95.6192,44.2741 -32.2677,41.0948 -68.8951,77.7672 -114.3021,103.9028 -54.8357,31.5836 -116.5248,33.1243 -176.8672,30.3518 -87.0583,-4.0686 -160.4008,-41.4139 -217.0299,-108.1596 -17.5856,-20.7063 -31.3218,-44.7505 -45.8676,-67.8449 -8.1394,-12.9315 -14.6862,-17.5847 -29.8028,-7.6206 -53.6176,35.2924 -106.9372,71.3333 -162.8549,102.6795 -62.2798,34.9244 -130.5597,52.3778 -202.1849,40.7648 -69.8255,-11.355 -126.6264,-49.1468 -175.8326,-98.8169 -13.2055,-13.3087 -26.2194,-26.7394 -46.7113,-47.7007 z M 5170.2776,575.20722 c -1.7934,-9.2843 -2.8467,-18.7166 -5.4281,-27.759 -14.6278,-52.4014 -70.8812,-70.3051 -110.4583,-33.3033 -17.8974,16.7255 -33.5008,37.8104 -44.5384,59.7387 -36.8641,73.147 -48.2239,153.499 -59.6322,233.4177 -2.8758,20.07618 -4.0892,41.09871 -1.4471,61.08294 4.9206,37.22587 28.082,45.74409 57.0797,22.09591 60.1845,-49.08433 101.7431,-112.48605 135.0938,-181.52975 20.2675,-41.9423 35.8333,-85.54 29.3306,-133.7432 z M 2629.5287,897.03358 c -3.5713,-37.14511 -16.059,-70.49023 -46.3455,-94.11096 -16.7901,-13.0876 -36.4381,-17.4088 -57.3905,-8.2177 -25.4171,11.1003 -37.4669,32.22701 -35.8262,64.86956 3.1826,63.23743 36.1832,114.19185 69.879,164.21642 17.3501,25.7616 30.836,23.3793 46.4809,-3.9669 21.8854,-38.23999 27.4768,-79.55572 23.2023,-122.79042 z m -641.6488,59.50525 c -9.4016,-21.94619 -16.6006,-45.22606 -28.7942,-65.52121 -15.5567,-25.82106 -49.1909,-34.46681 -76.894,-23.8156 -29.3166,11.29526 -39.6519,27.02341 -32.3636,63.88024 6.371,32.07609 17.4181,63.54047 29.5481,94.03364 8.9023,22.4125 21.1709,43.9832 35.0351,63.7578 18.6578,26.6409 34.8735,25.1139 47.0383,-4.0573 16.7726,-40.1615 28.5625,-81.6914 26.4303,-128.27757 z"
     id="path3"
     inkscape:connector-curvature="0"
     style="fill:#ed1c40" /><text
     xml:space="preserve"
     style="font-style:normal;font-weight:normal;font-size:375px;line-height:125%;font-family:sans-serif;letter-spacing:0px;word-spacing:0px;fill:#000000;fill-opacity:1;stroke:none;stroke-width:1px;stroke-linecap:butt;stroke-linejoin:miter;stroke-opacity:1"
     x="3187.4976"
     y="2100.0181"
     id="text3337"
     sodipodi:linespacing="125%"><tspan
       sodipodi:role="line"
       id="tspan3339"
       x="3187.4976"
       y="2100.0181"
       style="font-style:normal;font-variant:normal;font-weight:bold;font-stretch:normal;font-family:sans-serif;-inkscape-font-specification:'sans-serif Bold'">Photo Dowloader</tspan></text>
</svg>